<svg width="50" height="50" viewBox="0 0 50 50" fill="none" xmlns="http://www.w3.org/2000/svg">
<circle cx="25" cy="25" r="25" fill="#DAF7D7"/>
<g clip-path="url(#clip0_111_41)">
<path d="M20.9615 15.4807C22.0192 16.1538 22.4038 17.5 21.8269 18.6057M25 15.1442C24.8558 14.1346 23.9423 13.4134 22.9327 13.4615C21.875 13.4134 20.9615 14.2307 20.9135 15.2884C20.9135 15.3365 20.9135 15.4327 20.9135 15.4807C20.2404 15.0961 19.4231 15.1442 18.75 15.5769C18.0288 16.0096 17.6923 16.8269 17.8365 17.6442C17.3077 17.5961 16.7788 17.7403 16.3462 18.0288C15.4327 18.5577 15.1442 19.7596 15.6731 20.673C15.0962 20.9134 14.6635 21.3461 14.4712 21.923C14.1827 22.5961 14.3269 23.3653 14.7596 23.9423C14.1346 24.2307 13.6538 24.8557 13.6058 25.5769C13.4615 26.4423 13.9423 27.3077 14.7115 27.6923C14.0385 28.6538 14.2788 30 15.2404 30.673C15.5288 30.8653 15.9135 31.0096 16.25 31.0576C16.1058 31.5865 16.1538 32.1153 16.3942 32.5961C16.7788 33.4134 17.6442 33.8942 18.5096 33.75C18.5096 34.0384 18.6058 34.3269 18.7019 34.6153C19.1346 35.625 20.2885 36.0576 21.25 35.625C21.2981 35.5769 21.3942 35.5288 21.4423 35.4807C21.875 36.3942 22.9808 36.8269 23.9423 36.3942C24.4231 36.1538 24.7596 35.673 24.8558 35.1442H25V15.1442Z" stroke="#10A500" stroke-width="2" stroke-linecap="round" stroke-linejoin="round"/>
<path d="M21.7308 21.4423C21.1058 22.0673 20.0961 22.0673 19.4711 21.4423C18.8461 20.8173 18.8461 19.8076 19.4711 19.1826M19.7115 25.3846C20.4808 24.9519 21.4423 25.1923 21.9231 25.9615C22.3558 26.7307 22.1154 27.6923 21.3461 28.173H21.2981M14.7596 23.9423C14.7596 23.9423 16.9711 25.3846 17.6442 23.2211M14.6635 27.6923C14.6635 27.6923 16.9711 25.673 18.0769 28.4134M18.5577 33.7019C19.6154 33.6538 20.4327 32.7884 20.4327 31.7307C20.4327 31.5865 20.4327 31.4903 20.3846 31.3461M25 30.2403C25 30.2403 23.9423 28.9423 22.5961 30.2403M23.3654 19.5192C23.3654 19.5192 23.7981 20.9615 25 20.5288M29.0385 15.4807C29.0385 15.4326 29.0385 15.3365 29.0385 15.2884C28.9904 14.2307 28.0769 13.4134 27.0192 13.4615C26.0096 13.4615 25.1442 14.1346 25 15.1442V35.0961H25.0481C25.1923 35.625 25.5288 36.1057 26.0096 36.3461C26.9711 36.7307 28.0769 36.3461 28.5096 35.4326C28.5577 35.4807 28.6538 35.5288 28.7019 35.5769C29.6635 36.0096 30.8173 35.5769 31.25 34.5673C31.3461 34.2788 31.4423 33.9903 31.4423 33.7019C32.3558 33.8461 33.2211 33.3653 33.6058 32.548C33.8461 32.0673 33.8942 31.5384 33.75 31.0096C34.0865 30.9615 34.4711 30.8173 34.7596 30.625C35.7211 29.9519 35.9615 28.6057 35.2885 27.6442C36.0577 27.2596 36.5385 26.3942 36.3942 25.5288C36.3461 24.8076 35.8654 24.1826 35.2404 23.8942C35.6731 23.3173 35.8173 22.548 35.5288 21.875C35.3365 21.298 34.9038 20.8653 34.3269 20.625C34.8558 19.7115 34.5192 18.5096 33.6058 17.9807C33.1731 17.6923 32.6442 17.548 32.1154 17.6442C32.2596 16.8269 31.9231 16.0096 31.2019 15.5769C30.5288 15.1442 29.7115 15.0961 29.0385 15.4807ZM29.0385 15.4807C27.9808 16.1538 27.5961 17.5 28.1731 18.6057" stroke="#10A500" stroke-width="2" stroke-linecap="round" stroke-linejoin="round"/>
<path d="M28.2692 21.4424C28.8942 22.0674 29.9038 22.0674 30.5288 21.4424C31.1538 20.8174 31.1538 19.8077 30.5288 19.1827M30.2885 25.3847C29.5192 24.952 28.5577 25.2404 28.125 26.0097C27.6923 26.7789 27.9808 27.7404 28.7019 28.1731M35.2404 23.9424C35.2404 23.9424 33.0288 25.3847 32.3558 23.2212M35.3365 27.6924C35.3365 27.6924 33.0288 25.6731 31.9231 28.4135M31.4423 33.702C30.3846 33.6539 29.5673 32.7885 29.5673 31.7308C29.5673 31.5866 29.5673 31.4904 29.6154 31.3462M25 30.2404C25 30.2404 26.0577 28.9424 27.4038 30.2404M26.6346 19.5193C26.6346 19.5193 26.2019 20.9616 25 20.5289" stroke="#10A500" stroke-width="2" stroke-linecap="round" stroke-linejoin="round"/>
</g>
<defs>
<clipPath id="clip0_111_41">
<rect width="25" height="25" fill="white" transform="translate(12.5 12.5)"/>
</clipPath>
</defs>
</svg>
