<svg width="75" height="75" viewBox="0 0 75 75" fill="none" xmlns="http://www.w3.org/2000/svg">
<rect width="75" height="75" rx="10" fill="#DAF7D7"/>
<path d="M34.375 35.9375C31.0598 35.9375 27.8804 37.2545 25.5362 39.5987C23.192 41.9429 21.875 45.1223 21.875 48.4375V51.5625C21.875 51.9769 22.0396 52.3743 22.3326 52.6674C22.6257 52.9604 23.0231 53.125 23.4375 53.125H45.3125C45.7269 53.125 46.1243 52.9604 46.4174 52.6674C46.7104 52.3743 46.875 51.9769 46.875 51.5625V48.4375C46.875 45.1223 45.558 41.9429 43.2138 39.5987C40.8696 37.2545 37.6902 35.9375 34.375 35.9375ZM43.75 50H25V48.4375C25 45.9511 25.9877 43.5665 27.7459 41.8084C29.504 40.0502 31.8886 39.0625 34.375 39.0625C36.8614 39.0625 39.246 40.0502 41.0041 41.8084C42.7623 43.5665 43.75 45.9511 43.75 48.4375V50ZM34.375 34.375C35.6111 34.375 36.8195 34.0084 37.8473 33.3217C38.8751 32.6349 39.6762 31.6588 40.1492 30.5168C40.6223 29.3747 40.7461 28.1181 40.5049 26.9057C40.2638 25.6933 39.6685 24.5797 38.7944 23.7056C37.9203 22.8315 36.8067 22.2363 35.5943 21.9951C34.3819 21.7539 33.1253 21.8777 31.9832 22.3508C30.8412 22.8238 29.8651 23.6249 29.1783 24.6527C28.4916 25.6805 28.125 26.8889 28.125 28.125C28.125 29.7826 28.7835 31.3723 29.9556 32.5444C31.1277 33.7165 32.7174 34.375 34.375 34.375ZM34.375 25C34.9931 25 35.5973 25.1833 36.1112 25.5267C36.6251 25.87 37.0256 26.3581 37.2621 26.9291C37.4986 27.5001 37.5605 28.1285 37.44 28.7347C37.3194 29.3409 37.0217 29.8977 36.5847 30.3347C36.1477 30.7718 35.5908 31.0694 34.9847 31.19C34.3785 31.3105 33.7501 31.2487 33.1791 31.0121C32.6081 30.7756 32.12 30.3751 31.7767 29.8612C31.4333 29.3473 31.25 28.7431 31.25 28.125C31.25 27.2962 31.5792 26.5013 32.1653 25.9153C32.7513 25.3292 33.5462 25 34.375 25ZM52.6719 26.1094L47.9844 30.7969C47.8391 30.9433 47.6663 31.0596 47.4759 31.1389C47.2855 31.2182 47.0813 31.2591 46.875 31.2591C46.6687 31.2591 46.4645 31.2182 46.2741 31.1389C46.0837 31.0596 45.9109 30.9433 45.7656 30.7969L44.2031 29.2344C43.9089 28.9402 43.7436 28.5411 43.7436 28.125C43.7436 27.7089 43.9089 27.3099 44.2031 27.0156C44.4974 26.7214 44.8964 26.5561 45.3125 26.5561C45.7286 26.5561 46.1276 26.7214 46.4219 27.0156L46.875 27.4844L50.4531 23.8906C50.7474 23.5964 51.1464 23.4311 51.5625 23.4311C51.9786 23.4311 52.3776 23.5964 52.6719 23.8906C52.9661 24.1849 53.1314 24.5839 53.1314 25C53.1314 25.4161 52.9661 25.8152 52.6719 26.1094Z" fill="#10A500"/>
</svg>
