<svg width="342" height="342" viewBox="0 0 342 342" fill="none" xmlns="http://www.w3.org/2000/svg">
<path d="M200.87 170.754L335.27 36.5673C339.287 32.5501 341.544 27.1017 341.544 21.4206C341.544 15.7395 339.287 10.2911 335.27 6.27396C331.253 2.25681 325.805 0 320.124 0C314.443 0 308.994 2.25681 304.977 6.27396L170.79 140.674L36.6037 6.27396C32.5866 2.25681 27.1381 5.04394e-06 21.457 5.08626e-06C15.7759 5.12859e-06 10.3275 2.25681 6.31036 6.27396C2.29322 10.2911 0.0364126 15.7395 0.0364126 21.4206C0.0364125 27.1017 2.29322 32.5501 6.31036 36.5673L140.71 170.754L6.31036 304.941C4.31082 306.924 2.72375 309.283 1.64069 311.883C0.557621 314.483 0 317.271 0 320.087C0 322.904 0.557621 325.692 1.64069 328.292C2.72375 330.891 4.31082 333.251 6.31036 335.234C8.29357 337.233 10.6531 338.821 13.2527 339.904C15.8524 340.987 18.6408 341.544 21.457 341.544C24.2733 341.544 27.0617 340.987 29.6613 339.904C32.261 338.821 34.6205 337.233 36.6037 335.234L170.79 200.834L304.977 335.234C306.96 337.233 309.32 338.821 311.919 339.904C314.519 340.987 317.307 341.544 320.124 341.544C322.94 341.544 325.728 340.987 328.328 339.904C330.928 338.821 333.287 337.233 335.27 335.234C337.27 333.251 338.857 330.891 339.94 328.292C341.023 325.692 341.581 322.904 341.581 320.087C341.581 317.271 341.023 314.483 339.94 311.883C338.857 309.283 337.27 306.924 335.27 304.941L200.87 170.754Z" fill="black"/>
</svg>
