<svg width="50" height="50" viewBox="0 0 50 50" fill="none" xmlns="http://www.w3.org/2000/svg">
<circle cx="25" cy="25" r="25" fill="#DAF7D7"/>
<path d="M21.5034 36.6652C21.4231 36.6652 21.3421 36.6432 21.2699 36.5978C21.0866 36.4828 21.0144 36.2513 21.0998 36.0525L24.6962 27.6665H16.1034C15.9299 27.6665 15.7727 27.5644 15.702 27.4059C15.6314 27.2474 15.6606 27.0622 15.7766 26.9332L27.8411 13.5148C27.9854 13.3542 28.2253 13.3223 28.4066 13.4397C28.5879 13.557 28.6571 13.7887 28.5698 13.9863L24.7632 22.5938H32.9926C33.1648 22.5938 33.3212 22.6945 33.3926 22.8512C33.4639 23.008 33.4371 23.192 33.324 23.3219L21.8351 36.5143C21.7489 36.6132 21.6269 36.6652 21.5034 36.6652ZM17.0895 26.7876H25.3628C25.5106 26.7876 25.6484 26.8618 25.7298 26.9852C25.8111 27.1085 25.8249 27.2645 25.7667 27.4002L23.0111 33.8256L32.0272 23.4728H24.0884C23.9398 23.4728 23.8013 23.3977 23.7202 23.2732C23.6391 23.1486 23.6264 22.9915 23.6865 22.8556L26.6502 16.1539L17.0895 26.7876Z" fill="#10A500"/>
</svg>
