<svg width="50" height="50" viewBox="0 0 50 50" fill="none" xmlns="http://www.w3.org/2000/svg">
<circle cx="25" cy="25" r="25" fill="#DAF7D7"/>
<path d="M15.625 21.875C15.9013 21.875 16.1663 21.7653 16.3616 21.5699C16.557 21.3746 16.6667 21.1096 16.6667 20.8334V17.7084C16.6667 17.4321 16.7765 17.1672 16.9718 16.9718C17.1672 16.7765 17.4321 16.6667 17.7084 16.6667H20.8334C21.1096 16.6667 21.3746 16.557 21.5699 16.3616C21.7653 16.1663 21.875 15.9013 21.875 15.625C21.875 15.3488 21.7653 15.0838 21.5699 14.8885C21.3746 14.6931 21.1096 14.5834 20.8334 14.5834H17.7084C16.8796 14.5834 16.0847 14.9126 15.4987 15.4987C14.9126 16.0847 14.5834 16.8796 14.5834 17.7084V20.8334C14.5834 21.1096 14.6931 21.3746 14.8885 21.5699C15.0838 21.7653 15.3488 21.875 15.625 21.875ZM20.8334 33.3334H17.7084C17.4321 33.3334 17.1672 33.2236 16.9718 33.0283C16.7765 32.8329 16.6667 32.568 16.6667 32.2917V29.1667C16.6667 28.8904 16.557 28.6255 16.3616 28.4301C16.1663 28.2348 15.9013 28.125 15.625 28.125C15.3488 28.125 15.0838 28.2348 14.8885 28.4301C14.6931 28.6255 14.5834 28.8904 14.5834 29.1667V32.2917C14.5834 33.1205 14.9126 33.9154 15.4987 34.5014C16.0847 35.0875 16.8796 35.4167 17.7084 35.4167H20.8334C21.1096 35.4167 21.3746 35.307 21.5699 35.1116C21.7653 34.9163 21.875 34.6513 21.875 34.375C21.875 34.0988 21.7653 33.8338 21.5699 33.6385C21.3746 33.4431 21.1096 33.3334 20.8334 33.3334ZM25 20.8334C24.176 20.8334 23.3704 21.0777 22.6852 21.5356C22 21.9934 21.4659 22.6442 21.1505 23.4055C20.8352 24.1669 20.7527 25.0047 20.9134 25.8129C21.0742 26.6212 21.471 27.3636 22.0538 27.9463C22.6365 28.529 23.3789 28.9259 24.1872 29.0866C24.9954 29.2474 25.8332 29.1649 26.5946 28.8495C27.3559 28.5342 28.0067 28.0001 28.4645 27.3149C28.9223 26.6297 29.1667 25.8241 29.1667 25C29.1667 23.895 28.7277 22.8352 27.9463 22.0538C27.1649 21.2724 26.1051 20.8334 25 20.8334ZM25 27.0834C24.588 27.0834 24.1852 26.9612 23.8426 26.7323C23.5 26.5033 23.233 26.178 23.0753 25.7973C22.9176 25.4166 22.8764 24.9977 22.9567 24.5936C23.0371 24.1895 23.2355 23.8183 23.5269 23.5269C23.8183 23.2355 24.1895 23.0371 24.5936 22.9567C24.9977 22.8764 25.4166 22.9176 25.7973 23.0753C26.178 23.233 26.5033 23.5 26.7323 23.8426C26.9612 24.1852 27.0834 24.588 27.0834 25C27.0834 25.5526 26.8639 26.0825 26.4732 26.4732C26.0825 26.8639 25.5526 27.0834 25 27.0834ZM32.2917 14.5834H29.1667C28.8904 14.5834 28.6255 14.6931 28.4301 14.8885C28.2348 15.0838 28.125 15.3488 28.125 15.625C28.125 15.9013 28.2348 16.1663 28.4301 16.3616C28.6255 16.557 28.8904 16.6667 29.1667 16.6667H32.2917C32.568 16.6667 32.8329 16.7765 33.0283 16.9718C33.2236 17.1672 33.3334 17.4321 33.3334 17.7084V20.8334C33.3334 21.1096 33.4431 21.3746 33.6385 21.5699C33.8338 21.7653 34.0988 21.875 34.375 21.875C34.6513 21.875 34.9163 21.7653 35.1116 21.5699C35.307 21.3746 35.4167 21.1096 35.4167 20.8334V17.7084C35.4167 16.8796 35.0875 16.0847 34.5014 15.4987C33.9154 14.9126 33.1205 14.5834 32.2917 14.5834ZM34.375 28.125C34.0988 28.125 33.8338 28.2348 33.6385 28.4301C33.4431 28.6255 33.3334 28.8904 33.3334 29.1667V32.2917C33.3334 32.568 33.2236 32.8329 33.0283 33.0283C32.8329 33.2236 32.568 33.3334 32.2917 33.3334H29.1667C28.8904 33.3334 28.6255 33.4431 28.4301 33.6385C28.2348 33.8338 28.125 34.0988 28.125 34.375C28.125 34.6513 28.2348 34.9163 28.4301 35.1116C28.6255 35.307 28.8904 35.4167 29.1667 35.4167H32.2917C33.1205 35.4167 33.9154 35.0875 34.5014 34.5014C35.0875 33.9154 35.4167 33.1205 35.4167 32.2917V29.1667C35.4167 28.8904 35.307 28.6255 35.1116 28.4301C34.9163 28.2348 34.6513 28.125 34.375 28.125Z" fill="#10A500"/>
</svg>
