<svg width="50" height="50" viewBox="0 0 50 50" fill="none" xmlns="http://www.w3.org/2000/svg">
<circle cx="25" cy="25" r="25" fill="#DAF7D7"/>
<path d="M25 33.7032C24.8972 33.7038 24.7952 33.6841 24.7 33.6452C24.6049 33.6063 24.5183 33.549 24.4453 33.4766L17.2656 26.2969C16.4472 25.4775 15.89 24.4339 15.6643 23.298C15.4387 22.1621 15.5547 20.9847 15.9977 19.9147C16.4408 18.8447 17.191 17.9299 18.1536 17.286C19.1163 16.6421 20.2481 16.2979 21.4062 16.2969C22.7077 16.2919 23.9732 16.7238 25 17.5235C26.1284 16.6519 27.5353 16.2205 28.9584 16.3096C30.3814 16.3987 31.7235 17.0023 32.7344 18.0079C33.8302 19.1088 34.4454 20.599 34.4454 22.1524C34.4454 23.7058 33.8302 25.1959 32.7344 26.2969L25.5547 33.4766C25.4817 33.549 25.3951 33.6063 25.2999 33.6452C25.2047 33.6841 25.1028 33.7038 25 33.7032ZM21.4062 17.8594C20.8416 17.8575 20.2823 17.9677 19.7606 18.1836C19.2389 18.3995 18.7653 18.7169 18.3672 19.1172C17.5647 19.9251 17.1144 21.0176 17.1144 22.1563C17.1144 23.295 17.5647 24.3875 18.3672 25.1954L25 31.8204L31.6328 25.1954C32.4352 24.3875 32.8856 23.295 32.8856 22.1563C32.8856 21.0176 32.4352 19.9251 31.6328 19.1172C31.2338 18.718 30.76 18.4013 30.2385 18.1853C29.7171 17.9692 29.1582 17.858 28.5937 17.858C28.0293 17.858 27.4704 17.9692 26.9489 18.1853C26.4275 18.4013 25.9537 18.718 25.5547 19.1172C25.482 19.1905 25.3956 19.2486 25.3004 19.2882C25.2052 19.3279 25.1031 19.3483 25 19.3483C24.8968 19.3483 24.7947 19.3279 24.6995 19.2882C24.6043 19.2486 24.5179 19.1905 24.4453 19.1172C24.0472 18.7169 23.5735 18.3995 23.0519 18.1836C22.5302 17.9677 21.9708 17.8575 21.4062 17.8594Z" fill="#10A500"/>
</svg>
