<svg width="50" height="50" viewBox="0 0 50 50" fill="none" xmlns="http://www.w3.org/2000/svg">
<circle cx="25" cy="25" r="25" fill="#DAF7D7"/>
<path d="M34.375 23.9583H30.2709C30.1983 23.9484 30.1247 23.9484 30.0521 23.9583H29.875C29.8206 23.9894 29.7684 24.0242 29.7188 24.0625C29.6608 24.1008 29.6051 24.1425 29.5521 24.1875C29.5173 24.2301 29.486 24.2753 29.4584 24.3229C29.4106 24.3885 29.3688 24.4582 29.3334 24.5312L27.6667 29.125L23.323 17.3541C23.25 17.153 23.1168 16.9793 22.9416 16.8565C22.7665 16.7337 22.5577 16.6678 22.3438 16.6678C22.1299 16.6678 21.9211 16.7337 21.7459 16.8565C21.5707 16.9793 21.4376 17.153 21.3646 17.3541L18.9584 23.9583H15.625C15.3488 23.9583 15.0838 24.068 14.8885 24.2634C14.6931 24.4587 14.5834 24.7237 14.5834 25C14.5834 25.2762 14.6931 25.5412 14.8885 25.7365C15.0838 25.9319 15.3488 26.0416 15.625 26.0416H19.7084H19.948H20.1042C20.1634 26.0131 20.2193 25.9782 20.2709 25.9375C20.3289 25.8992 20.3845 25.8574 20.4375 25.8125L20.5313 25.677C20.5809 25.6127 20.6229 25.5428 20.6563 25.4687L22.3438 20.75L26.6771 32.6458C26.7499 32.8471 26.883 33.0211 27.0582 33.1441C27.2334 33.2672 27.4422 33.3332 27.6563 33.3333C27.8704 33.3332 28.0792 33.2672 28.2544 33.1441C28.4296 33.0211 28.5627 32.8471 28.6355 32.6458L31.0313 26.0416H34.375C34.6513 26.0416 34.9163 25.9319 35.1116 25.7365C35.307 25.5412 35.4167 25.2762 35.4167 25C35.4167 24.7237 35.307 24.4587 35.1116 24.2634C34.9163 24.068 34.6513 23.9583 34.375 23.9583Z" fill="#10A500"/>
</svg>
