<svg width="75" height="75" viewBox="0 0 75 75" fill="none" xmlns="http://www.w3.org/2000/svg">
<rect width="75" height="75" rx="10" fill="#DAF7D7"/>
<path d="M48.8502 26.145C45.7172 23.012 41.1867 22.4249 38.6771 24.8062C38.6384 24.8298 38.6026 24.8579 38.5705 24.89L31.7326 31.7278L24.8941 38.5657C24.8631 38.5972 24.836 38.6322 24.8133 38.67C22.4308 41.1784 23.0144 45.7101 26.1498 48.8454C27.5741 50.3163 29.4409 51.2805 31.4648 51.5905C31.7826 51.6331 32.1028 51.6547 32.4234 51.655C33.8646 51.6904 35.263 51.1633 36.3222 50.1855C36.3613 50.1616 36.3973 50.133 36.4295 50.1005L43.2674 43.2632L50.1058 36.4253C50.1367 36.3937 50.1638 36.3588 50.1867 36.321C52.5691 33.8126 51.9855 29.2798 48.8502 26.145ZM35.6918 49.1812C35.6554 49.2044 35.6216 49.2315 35.591 49.262C35.0656 49.7526 34.4328 50.1135 33.7432 50.3161C33.0536 50.5186 32.3261 50.5572 31.6189 50.4286C29.8503 50.1526 28.2206 49.3056 26.9783 48.0169C24.2578 45.2987 23.7017 41.4357 25.7332 39.4048C25.7633 39.3744 25.7901 39.3408 25.8129 39.3046L32.1468 32.9706L37.0857 37.9101L42.0246 42.8495L35.6918 49.1812ZM49.2668 35.5874C49.2355 35.6183 49.208 35.6527 49.1847 35.69L42.8531 42.0198L37.9142 37.081L32.9754 32.1421L39.3093 25.8087C39.3451 25.7853 39.3785 25.7584 39.409 25.7284C41.441 23.697 45.3035 24.2554 48.0222 26.9736C50.741 29.6917 51.2982 33.5548 49.2668 35.5862V35.5874Z" fill="#10A500"/>
</svg>
