<svg width="50" height="50" viewBox="0 0 50 50" fill="none" xmlns="http://www.w3.org/2000/svg">
<circle cx="25" cy="25" r="25" fill="#DAF7D7"/>
<path fill-rule="evenodd" clip-rule="evenodd" d="M22.5649 16.6729C17.945 18.0466 15.3173 22.9572 16.7127 27.6502C18.1081 32.3433 22.9919 35.0205 27.6118 33.6469C30.0093 32.934 31.8695 31.2702 32.9103 29.1768C28.7914 29.8537 24.7092 27.3365 23.4774 23.1937C22.7621 20.7879 23.1513 18.3178 24.3498 16.3396C23.7563 16.3868 23.1586 16.4964 22.5649 16.6729ZM15.7142 27.9471C14.1584 22.7143 17.085 17.2155 22.2681 15.6745C23.3038 15.3665 24.3518 15.2401 25.3779 15.2773C25.5741 15.2844 25.7497 15.4013 25.8319 15.5795C25.9142 15.7578 25.8893 15.9671 25.7674 16.1211C24.3154 17.9553 23.7518 20.4615 24.4758 22.8968C25.6499 26.8455 29.7582 29.0963 33.6429 27.9413C33.8316 27.8853 34.0364 27.9401 34.1712 28.0833C34.3061 28.2266 34.3487 28.4337 34.2815 28.6186C33.2578 31.4295 30.9784 33.7326 27.9086 34.6453C22.7256 36.1864 17.2701 33.1799 15.7142 27.9471Z" fill="#10A500"/>
<path fill-rule="evenodd" clip-rule="evenodd" d="M31.2459 22.7371C31.5335 22.7371 31.7667 22.9703 31.7667 23.2579V25.3412C31.7667 25.6289 31.5335 25.8621 31.2459 25.8621C30.9583 25.8621 30.7251 25.6289 30.7251 25.3412V23.2579C30.7251 22.9703 30.9583 22.7371 31.2459 22.7371ZM34.3709 17.0079C34.6585 17.0079 34.8917 17.2411 34.8917 17.5288V19.6121C34.8917 19.8997 34.6585 20.1329 34.3709 20.1329C34.0833 20.1329 33.8501 19.8997 33.8501 19.6121V17.5288C33.8501 17.2411 34.0833 17.0079 34.3709 17.0079ZM29.1626 13.8829C29.4502 13.8829 29.6834 14.1161 29.6834 14.4038V16.4871C29.6834 16.7747 29.4502 17.0079 29.1626 17.0079C28.875 17.0079 28.6417 16.7747 28.6417 16.4871V14.4038C28.6417 14.1161 28.875 13.8829 29.1626 13.8829Z" fill="#10A500"/>
<path fill-rule="evenodd" clip-rule="evenodd" d="M32.8084 24.2996C32.8084 24.5873 32.5752 24.8205 32.2876 24.8205H30.2043C29.9167 24.8205 29.6834 24.5873 29.6834 24.2996C29.6834 24.012 29.9167 23.7788 30.2043 23.7788H32.2876C32.5752 23.7788 32.8084 24.012 32.8084 24.2996ZM35.9334 18.5705C35.9334 18.8582 35.7002 19.0913 35.4126 19.0913H33.3293C33.0417 19.0913 32.8084 18.8582 32.8084 18.5705C32.8084 18.2829 33.0417 18.0497 33.3293 18.0497H35.4126C35.7002 18.0497 35.9334 18.2829 35.9334 18.5705ZM30.7251 15.4455C30.7251 15.7332 30.4919 15.9663 30.2043 15.9663H28.1209C27.8333 15.9663 27.6001 15.7332 27.6001 15.4455C27.6001 15.1579 27.8333 14.9247 28.1209 14.9247H30.2043C30.4919 14.9247 30.7251 15.1579 30.7251 15.4455Z" fill="#10A500"/>
</svg>
