<svg width="75" height="75" viewBox="0 0 75 75" fill="none" xmlns="http://www.w3.org/2000/svg">
<rect width="75" height="75" rx="10" fill="#DAF7D7"/>
<path d="M46.0125 24.5999H44.025V23.7749C44.025 23.5499 43.875 23.3999 43.65 23.3999C43.425 23.3999 43.275 23.5499 43.275 23.7749V24.5999H39.9V23.7749C39.9 23.5499 39.75 23.3999 39.525 23.3999C39.3 23.3999 39.15 23.5499 39.15 23.7749V24.5999H35.775V23.7749C35.775 23.5499 35.625 23.3999 35.4 23.3999C35.175 23.3999 35.025 23.5499 35.025 23.7749V24.5999H31.65V23.7749C31.65 23.5499 31.5 23.3999 31.275 23.3999C31.05 23.3999 30.9 23.5499 30.9 23.7749V24.5999H28.9125C27.8625 24.5999 27 25.4624 27 26.5124V49.6874C27 50.7374 27.8625 51.5999 28.9125 51.5999H45.9375C46.9875 51.5999 47.85 50.7374 47.85 49.6874V26.5124C47.925 25.4624 47.0625 24.5999 46.0125 24.5999ZM47.175 49.6874C47.175 50.3249 46.65 50.8499 46.0125 50.8499H28.9875C28.35 50.8499 27.825 50.3249 27.825 49.6874V26.5124C27.825 25.8749 28.35 25.3499 28.9875 25.3499H30.975V26.4374C30.225 26.6249 29.7 27.2624 29.7 28.0499C29.7 28.9499 30.45 29.6999 31.35 29.6999C32.25 29.6999 33 28.9499 33 28.0499C33 27.2624 32.4375 26.6249 31.725 26.4374V25.3499H35.1V26.4374C34.35 26.6249 33.825 27.2624 33.825 28.0499C33.825 28.9499 34.575 29.6999 35.475 29.6999C36.375 29.6999 37.125 28.9499 37.125 28.0499C37.125 27.2624 36.5625 26.6249 35.85 26.4374V25.3499H39.225V26.4374C38.475 26.6249 37.95 27.2624 37.95 28.0499C37.95 28.9499 38.7 29.6999 39.6 29.6999C40.5 29.6999 41.25 28.9499 41.25 28.0499C41.25 27.2624 40.6875 26.6249 39.975 26.4374V25.3499H43.35V26.4374C42.6 26.6249 42.075 27.2624 42.075 28.0499C42.075 28.9499 42.825 29.6999 43.725 29.6999C44.625 29.6999 45.375 28.9499 45.375 28.0499C45.375 27.2624 44.8125 26.6249 44.1 26.4374V25.3499H46.0875C46.725 25.3499 47.25 25.8749 47.25 26.5124V49.6874H47.175ZM31.35 28.4249C31.575 28.4249 31.725 28.2749 31.725 28.0499V27.2249C32.025 27.3749 32.25 27.6749 32.25 28.0499C32.25 28.5374 31.8375 28.9499 31.35 28.9499C30.8625 28.9499 30.45 28.5374 30.45 28.0499C30.45 27.6749 30.675 27.3749 30.975 27.2249V28.0499C30.975 28.2374 31.125 28.4249 31.35 28.4249ZM35.4375 28.4249C35.6625 28.4249 35.8125 28.2749 35.8125 28.0499V27.2249C36.1125 27.3749 36.3375 27.6749 36.3375 28.0499C36.3375 28.5374 35.925 28.9499 35.4375 28.9499C34.95 28.9499 34.5375 28.5374 34.5375 28.0499C34.5375 27.6749 34.7625 27.3749 35.0625 27.2249V28.0499C35.0625 28.2374 35.25 28.4249 35.4375 28.4249ZM39.5625 28.4249C39.7875 28.4249 39.9375 28.2749 39.9375 28.0499V27.2249C40.2375 27.3749 40.4625 27.6749 40.4625 28.0499C40.4625 28.5374 40.05 28.9499 39.5625 28.9499C39.075 28.9499 38.6625 28.5374 38.6625 28.0499C38.6625 27.6749 38.8875 27.3749 39.1875 27.2249V28.0499C39.1875 28.2374 39.3375 28.4249 39.5625 28.4249ZM43.65 28.4249C43.875 28.4249 44.025 28.2749 44.025 28.0499V27.2249C44.325 27.3749 44.55 27.6749 44.55 28.0499C44.55 28.5374 44.1375 28.9499 43.65 28.9499C43.1625 28.9499 42.75 28.5374 42.75 28.0499C42.75 27.6749 42.975 27.3749 43.275 27.2249V28.0499C43.275 28.2374 43.4625 28.4249 43.65 28.4249Z" fill="#10A500"/>
<path d="M45.375 32.9624H29.625C29.4 32.9624 29.25 33.1124 29.25 33.3374C29.25 33.5624 29.4 33.7124 29.625 33.7124H45.375C45.6 33.7124 45.75 33.5624 45.75 33.3374C45.75 33.1499 45.6 32.9624 45.375 32.9624ZM45.375 35.9624H29.625C29.4 35.9624 29.25 36.1124 29.25 36.3374C29.25 36.5624 29.4 36.7124 29.625 36.7124H45.375C45.6 36.7124 45.75 36.5624 45.75 36.3374C45.75 36.1499 45.6 35.9624 45.375 35.9624ZM45.375 38.9624H29.625C29.4 38.9624 29.25 39.1124 29.25 39.3374C29.25 39.5624 29.4 39.7124 29.625 39.7124H45.375C45.6 39.7124 45.75 39.5624 45.75 39.3374C45.75 39.1499 45.6 38.9624 45.375 38.9624ZM45.375 41.9624H29.625C29.4 41.9624 29.25 42.1124 29.25 42.3374C29.25 42.5624 29.4 42.7124 29.625 42.7124H45.375C45.6 42.7124 45.75 42.5624 45.75 42.3374C45.75 42.1499 45.6 41.9624 45.375 41.9624ZM45.375 44.9624H29.625C29.4 44.9624 29.25 45.1124 29.25 45.3374C29.25 45.5624 29.4 45.7124 29.625 45.7124H45.375C45.6 45.7124 45.75 45.5624 45.75 45.3374C45.75 45.1499 45.6 44.9624 45.375 44.9624ZM45.375 47.9624H29.625C29.4 47.9624 29.25 48.1124 29.25 48.3374C29.25 48.5624 29.4 48.7124 29.625 48.7124H45.375C45.6 48.7124 45.75 48.5624 45.75 48.3374C45.75 48.1499 45.6 47.9624 45.375 47.9624Z" fill="#10A500"/>
</svg>
