<svg width="50" height="50" viewBox="0 0 50 50" fill="none" xmlns="http://www.w3.org/2000/svg">
<circle cx="25" cy="25" r="25" fill="#DAF7D7"/>
<g clip-path="url(#clip0_111_79)">
<path d="M21.0938 28.125C23.8983 28.125 26.1719 25.8514 26.1719 23.0469C26.1719 20.2423 23.8983 17.9688 21.0938 17.9688C18.2892 17.9688 16.0156 20.2423 16.0156 23.0469C16.0156 25.8514 18.2892 28.125 21.0938 28.125Z" stroke="#10A500" stroke-width="1.5625" stroke-miterlimit="10"/>
<path d="M27.677 18.1579C28.3755 17.9611 29.108 17.9162 29.8252 18.0264C30.5425 18.1365 31.2278 18.3991 31.835 18.7964C32.4422 19.1937 32.9573 19.7165 33.3454 20.3296C33.7336 20.9428 33.9858 21.6319 34.0852 22.3507C34.1845 23.0696 34.1287 23.8013 33.9215 24.4968C33.7142 25.1922 33.3604 25.8351 32.8837 26.3823C32.407 26.9294 31.8187 27.3681 31.1582 27.6687C30.4978 27.9693 29.7806 28.1249 29.0549 28.1249C30.434 28.1239 31.7931 28.4553 33.0171 29.0909C34.241 29.7265 35.2937 30.6477 36.0862 31.7764M14.0621 31.777C14.8552 30.6488 15.9081 29.7281 17.1319 29.0925C18.3557 28.4568 19.7145 28.125 21.0935 28.1249C22.4725 28.1249 23.8313 28.4566 25.0551 29.0922C26.2789 29.7277 27.3319 30.6484 28.1251 31.7764" stroke="#10A500" stroke-width="1.5625" stroke-linecap="round" stroke-linejoin="round"/>
</g>
<defs>
<clipPath id="clip0_111_79">
<rect width="25" height="25" fill="white" transform="translate(12.5 12.5)"/>
</clipPath>
</defs>
</svg>
